<svg xmlns="http://www.w3.org/2000/svg" xmlns:xlink="http://www.w3.org/1999/xlink" width="500" zoomAndPan="magnify" viewBox="0 0 375 374.999991" height="500" preserveAspectRatio="xMidYMid meet" version="1.0"><defs><g/><clipPath id="53a134c181"><path d="M 88.878906 113.410156 L 217.128906 113.410156 L 217.128906 239.410156 L 88.878906 239.410156 Z M 88.878906 113.410156 " clip-rule="nonzero"/></clipPath></defs><rect x="-37.5" width="450" fill="#ffffff" y="-37.499999" height="449.999989" fill-opacity="1"/><rect x="-37.5" width="450" fill="#ffffff" y="-37.499999" height="449.999989" fill-opacity="1"/><rect x="-37.5" width="450" fill="#ffffff" y="-37.499999" height="449.999989" fill-opacity="1"/><g clip-path="url(#53a134c181)"><path fill="#004aad" d="M 170.125 123.34375 L 169.984375 123.261719 L 169.972656 123.261719 L 153.003906 113.453125 L 89.183594 150.324219 L 88.878906 150.5 L 88.878906 239.371094 L 138.621094 239.371094 C 138.957031 239.371094 139.230469 239.097656 139.230469 238.761719 C 139.230469 238.425781 138.957031 238.152344 138.621094 238.152344 L 111.398438 238.152344 L 111.398438 158.324219 L 169.816406 124.570312 L 215.910156 151.207031 L 215.910156 178.191406 C 215.910156 178.527344 216.183594 178.800781 216.519531 178.800781 C 216.855469 178.800781 217.128906 178.527344 217.128906 178.191406 L 217.128906 150.5 Z M 170.125 123.34375 " fill-opacity="1" fill-rule="nonzero"/></g><g fill="#004aad" fill-opacity="1"><g transform="translate(144.473373, 221.690215)"><g><path d="M 2.53125 0 L 2.53125 -18.609375 L 7.84375 -18.609375 C 10 -18.609375 11.710938 -18.242188 12.984375 -17.515625 C 14.253906 -16.785156 14.890625 -15.6875 14.890625 -14.21875 C 14.890625 -13.1875 14.53125 -12.289062 13.8125 -11.53125 C 13.09375 -10.78125 12.085938 -10.207031 10.796875 -9.8125 C 12.503906 -9.488281 13.789062 -8.910156 14.65625 -8.078125 C 15.53125 -7.242188 15.96875 -6.328125 15.96875 -5.328125 C 15.96875 -4.335938 15.710938 -3.492188 15.203125 -2.796875 C 14.703125 -2.097656 14.054688 -1.5625 13.265625 -1.1875 C 11.671875 -0.394531 10.039062 0 8.375 0 Z M 5.25 -10.09375 L 7.28125 -10.09375 C 8.988281 -10.09375 10.210938 -10.472656 10.953125 -11.234375 C 11.691406 -11.992188 12.0625 -12.941406 12.0625 -14.078125 C 12.0625 -14.847656 11.800781 -15.546875 11.28125 -16.171875 C 10.769531 -16.804688 9.976562 -17.28125 8.90625 -17.59375 C 7.632812 -17.59375 6.414062 -17.40625 5.25 -17.03125 Z M 5.25 -9.28125 L 5.25 -1.265625 C 5.851562 -1.078125 6.78125 -0.984375 8.03125 -0.984375 C 9.289062 -0.984375 10.40625 -1.328125 11.375 -2.015625 C 12.351562 -2.710938 12.84375 -3.679688 12.84375 -4.921875 C 12.84375 -6.160156 12.304688 -7.195312 11.234375 -8.03125 C 10.171875 -8.863281 8.890625 -9.28125 7.390625 -9.28125 Z M 5.25 -9.28125 "/></g></g></g><g fill="#004aad" fill-opacity="1"><g transform="translate(166.421427, 221.690215)"><g><path d="M 10.984375 -18.953125 C 13.421875 -18.953125 15.4375 -18.148438 17.03125 -16.546875 C 18.625 -14.941406 19.421875 -12.710938 19.421875 -9.859375 C 19.421875 -8.023438 19.101562 -6.421875 18.46875 -5.046875 C 17.832031 -3.671875 17 -2.609375 15.96875 -1.859375 C 13.957031 -0.390625 11.742188 0.34375 9.328125 0.34375 C 6.910156 0.34375 4.910156 -0.46875 3.328125 -2.09375 C 1.742188 -3.71875 0.953125 -5.953125 0.953125 -8.796875 C 0.953125 -10.273438 1.160156 -11.609375 1.578125 -12.796875 C 2.003906 -13.992188 2.554688 -14.96875 3.234375 -15.71875 C 3.921875 -16.46875 4.71875 -17.09375 5.625 -17.59375 C 7.269531 -18.5 9.054688 -18.953125 10.984375 -18.953125 Z M 5.34375 -3.203125 C 5.832031 -2.378906 6.488281 -1.738281 7.3125 -1.28125 C 8.132812 -0.820312 9.082031 -0.59375 10.15625 -0.59375 C 11.238281 -0.59375 12.203125 -0.863281 13.046875 -1.40625 C 13.890625 -1.945312 14.546875 -2.660156 15.015625 -3.546875 C 15.960938 -5.304688 16.4375 -7.195312 16.4375 -9.21875 C 16.4375 -11.707031 15.941406 -13.710938 14.953125 -15.234375 C 13.847656 -16.941406 12.019531 -17.796875 9.46875 -17.796875 C 7.65625 -17.160156 6.28125 -16.0625 5.34375 -14.5 C 4.40625 -12.945312 3.9375 -11.1875 3.9375 -9.21875 C 3.9375 -6.820312 4.40625 -4.816406 5.34375 -3.203125 Z M 5.34375 -3.203125 "/></g></g></g><g fill="#004aad" fill-opacity="1"><g transform="translate(190.645701, 221.690215)"><g><path d="M 10.984375 -18.953125 C 13.421875 -18.953125 15.4375 -18.148438 17.03125 -16.546875 C 18.625 -14.941406 19.421875 -12.710938 19.421875 -9.859375 C 19.421875 -8.023438 19.101562 -6.421875 18.46875 -5.046875 C 17.832031 -3.671875 17 -2.609375 15.96875 -1.859375 C 13.957031 -0.390625 11.742188 0.34375 9.328125 0.34375 C 6.910156 0.34375 4.910156 -0.46875 3.328125 -2.09375 C 1.742188 -3.71875 0.953125 -5.953125 0.953125 -8.796875 C 0.953125 -10.273438 1.160156 -11.609375 1.578125 -12.796875 C 2.003906 -13.992188 2.554688 -14.96875 3.234375 -15.71875 C 3.921875 -16.46875 4.71875 -17.09375 5.625 -17.59375 C 7.269531 -18.5 9.054688 -18.953125 10.984375 -18.953125 Z M 5.34375 -3.203125 C 5.832031 -2.378906 6.488281 -1.738281 7.3125 -1.28125 C 8.132812 -0.820312 9.082031 -0.59375 10.15625 -0.59375 C 11.238281 -0.59375 12.203125 -0.863281 13.046875 -1.40625 C 13.890625 -1.945312 14.546875 -2.660156 15.015625 -3.546875 C 15.960938 -5.304688 16.4375 -7.195312 16.4375 -9.21875 C 16.4375 -11.707031 15.941406 -13.710938 14.953125 -15.234375 C 13.847656 -16.941406 12.019531 -17.796875 9.46875 -17.796875 C 7.65625 -17.160156 6.28125 -16.0625 5.34375 -14.5 C 4.40625 -12.945312 3.9375 -11.1875 3.9375 -9.21875 C 3.9375 -6.820312 4.40625 -4.816406 5.34375 -3.203125 Z M 5.34375 -3.203125 "/></g></g></g><g fill="#004aad" fill-opacity="1"><g transform="translate(214.869975, 221.690215)"><g><path d="M 5.390625 0 L 2.53125 0 L 2.53125 -18.609375 L 5.390625 -18.609375 L 5.390625 -9.4375 L 14.078125 -18.609375 L 15.9375 -18.609375 L 7.140625 -9.953125 L 17.125 0 L 13.515625 0.359375 L 5.390625 -9.15625 Z M 5.390625 0 "/></g></g></g><g fill="#004aad" fill-opacity="1"><g transform="translate(235.83448, 221.690215)"><g><path d="M 2.53125 0 L 2.53125 -18.609375 L 13.796875 -18.609375 L 13.515625 -16.71875 L 8.296875 -17.59375 C 7.378906 -17.59375 6.363281 -17.4375 5.25 -17.125 L 5.25 -10.28125 L 11.5 -10.28125 L 11.5 -9.21875 L 5.25 -9.21875 L 5.25 -1.015625 L 13.96875 -1.890625 L 13.6875 0 Z M 2.53125 0 "/></g></g></g><g fill="#004aad" fill-opacity="1"><g transform="translate(255.478205, 221.690215)"><g><path d="M 12.453125 -4.40625 L 18.671875 -18.609375 L 21.53125 -18.609375 L 22.578125 0 L 19.703125 0 L 18.953125 -16 L 18.828125 -16 L 11.75 0 L 11.359375 0 L 4.40625 -15.34375 L 4.296875 -15.34375 L 3.546875 0 L 2.3125 0 L 3.34375 -18.609375 L 5.953125 -18.609375 Z M 12.453125 -4.40625 "/></g></g></g><g fill="#004aad" fill-opacity="1"><g transform="translate(88.877629, 259.945032)"><g><path d="M 5.125 -3.328125 C 5.550781 -3.234375 5.878906 -3.050781 6.109375 -2.78125 C 6.335938 -2.507812 6.453125 -2.160156 6.453125 -1.734375 C 6.453125 -1.171875 6.25 -0.738281 5.84375 -0.4375 C 5.4375 -0.144531 4.832031 0 4.03125 0 L 1.046875 0 L 1.046875 -6.46875 L 3.84375 -6.46875 C 4.5625 -6.46875 5.117188 -6.320312 5.515625 -6.03125 C 5.910156 -5.738281 6.109375 -5.328125 6.109375 -4.796875 C 6.109375 -4.441406 6.019531 -4.140625 5.84375 -3.890625 C 5.675781 -3.640625 5.4375 -3.453125 5.125 -3.328125 Z M 1.734375 -5.90625 L 1.734375 -3.5625 L 3.796875 -3.5625 C 4.316406 -3.5625 4.71875 -3.660156 5 -3.859375 C 5.289062 -4.054688 5.4375 -4.347656 5.4375 -4.734375 C 5.4375 -5.109375 5.289062 -5.394531 5 -5.59375 C 4.71875 -5.800781 4.316406 -5.90625 3.796875 -5.90625 Z M 4.015625 -0.5625 C 4.597656 -0.5625 5.035156 -0.660156 5.328125 -0.859375 C 5.617188 -1.054688 5.765625 -1.363281 5.765625 -1.78125 C 5.765625 -2.582031 5.179688 -2.984375 4.015625 -2.984375 L 1.734375 -2.984375 L 1.734375 -0.5625 Z M 4.015625 -0.5625 "/></g></g></g><g fill="#004aad" fill-opacity="1"><g transform="translate(102.454898, 259.945032)"><g><path d="M 3.875 0.0625 C 3.238281 0.0625 2.660156 -0.078125 2.140625 -0.359375 C 1.617188 -0.648438 1.210938 -1.046875 0.921875 -1.546875 C 0.628906 -2.046875 0.484375 -2.609375 0.484375 -3.234375 C 0.484375 -3.859375 0.628906 -4.414062 0.921875 -4.90625 C 1.210938 -5.40625 1.617188 -5.796875 2.140625 -6.078125 C 2.660156 -6.367188 3.238281 -6.515625 3.875 -6.515625 C 4.519531 -6.515625 5.097656 -6.375 5.609375 -6.09375 C 6.117188 -5.8125 6.519531 -5.421875 6.8125 -4.921875 C 7.113281 -4.421875 7.265625 -3.859375 7.265625 -3.234375 C 7.265625 -2.609375 7.113281 -2.046875 6.8125 -1.546875 C 6.519531 -1.046875 6.117188 -0.648438 5.609375 -0.359375 C 5.097656 -0.078125 4.519531 0.0625 3.875 0.0625 Z M 3.875 -0.546875 C 4.382812 -0.546875 4.84375 -0.660156 5.25 -0.890625 C 5.664062 -1.128906 5.988281 -1.453125 6.21875 -1.859375 C 6.457031 -2.265625 6.578125 -2.722656 6.578125 -3.234375 C 6.578125 -3.734375 6.457031 -4.1875 6.21875 -4.59375 C 5.988281 -5.007812 5.664062 -5.332031 5.25 -5.5625 C 4.84375 -5.789062 4.382812 -5.90625 3.875 -5.90625 C 3.363281 -5.90625 2.898438 -5.789062 2.484375 -5.5625 C 2.066406 -5.332031 1.738281 -5.007812 1.5 -4.59375 C 1.269531 -4.1875 1.15625 -3.734375 1.15625 -3.234375 C 1.15625 -2.722656 1.269531 -2.265625 1.5 -1.859375 C 1.738281 -1.453125 2.066406 -1.128906 2.484375 -0.890625 C 2.898438 -0.660156 3.363281 -0.546875 3.875 -0.546875 Z M 3.875 -0.546875 "/></g></g></g><g fill="#004aad" fill-opacity="1"><g transform="translate(116.816088, 259.945032)"><g><path d="M 3.875 0.0625 C 3.238281 0.0625 2.660156 -0.078125 2.140625 -0.359375 C 1.617188 -0.648438 1.210938 -1.046875 0.921875 -1.546875 C 0.628906 -2.046875 0.484375 -2.609375 0.484375 -3.234375 C 0.484375 -3.859375 0.628906 -4.414062 0.921875 -4.90625 C 1.210938 -5.40625 1.617188 -5.796875 2.140625 -6.078125 C 2.660156 -6.367188 3.238281 -6.515625 3.875 -6.515625 C 4.519531 -6.515625 5.097656 -6.375 5.609375 -6.09375 C 6.117188 -5.8125 6.519531 -5.421875 6.8125 -4.921875 C 7.113281 -4.421875 7.265625 -3.859375 7.265625 -3.234375 C 7.265625 -2.609375 7.113281 -2.046875 6.8125 -1.546875 C 6.519531 -1.046875 6.117188 -0.648438 5.609375 -0.359375 C 5.097656 -0.078125 4.519531 0.0625 3.875 0.0625 Z M 3.875 -0.546875 C 4.382812 -0.546875 4.84375 -0.660156 5.25 -0.890625 C 5.664062 -1.128906 5.988281 -1.453125 6.21875 -1.859375 C 6.457031 -2.265625 6.578125 -2.722656 6.578125 -3.234375 C 6.578125 -3.734375 6.457031 -4.1875 6.21875 -4.59375 C 5.988281 -5.007812 5.664062 -5.332031 5.25 -5.5625 C 4.84375 -5.789062 4.382812 -5.90625 3.875 -5.90625 C 3.363281 -5.90625 2.898438 -5.789062 2.484375 -5.5625 C 2.066406 -5.332031 1.738281 -5.007812 1.5 -4.59375 C 1.269531 -4.1875 1.15625 -3.734375 1.15625 -3.234375 C 1.15625 -2.722656 1.269531 -2.265625 1.5 -1.859375 C 1.738281 -1.453125 2.066406 -1.128906 2.484375 -0.890625 C 2.898438 -0.660156 3.363281 -0.546875 3.875 -0.546875 Z M 3.875 -0.546875 "/></g></g></g><g fill="#004aad" fill-opacity="1"><g transform="translate(131.177278, 259.945032)"><g><path d="M 3.0625 -3.03125 L 1.734375 -1.703125 L 1.734375 0 L 1.046875 0 L 1.046875 -6.46875 L 1.734375 -6.46875 L 1.734375 -2.5625 L 5.53125 -6.46875 L 6.3125 -6.46875 L 3.515625 -3.53125 L 6.515625 0 L 5.703125 0 Z M 3.0625 -3.03125 "/></g></g></g><g fill="#004aad" fill-opacity="1"><g transform="translate(144.357963, 259.945032)"><g/></g></g><g fill="#004aad" fill-opacity="1"><g transform="translate(153.397662, 259.945032)"><g><path d="M 2.3125 -5.875 L 0.03125 -5.875 L 0.03125 -6.46875 L 5.265625 -6.46875 L 5.265625 -5.875 L 2.984375 -5.875 L 2.984375 0 L 2.3125 0 Z M 2.3125 -5.875 "/></g></g></g><g fill="#004aad" fill-opacity="1"><g transform="translate(165.314841, 259.945032)"><g><path d="M 3.875 0.0625 C 3.238281 0.0625 2.660156 -0.078125 2.140625 -0.359375 C 1.617188 -0.648438 1.210938 -1.046875 0.921875 -1.546875 C 0.628906 -2.046875 0.484375 -2.609375 0.484375 -3.234375 C 0.484375 -3.859375 0.628906 -4.414062 0.921875 -4.90625 C 1.210938 -5.40625 1.617188 -5.796875 2.140625 -6.078125 C 2.660156 -6.367188 3.238281 -6.515625 3.875 -6.515625 C 4.519531 -6.515625 5.097656 -6.375 5.609375 -6.09375 C 6.117188 -5.8125 6.519531 -5.421875 6.8125 -4.921875 C 7.113281 -4.421875 7.265625 -3.859375 7.265625 -3.234375 C 7.265625 -2.609375 7.113281 -2.046875 6.8125 -1.546875 C 6.519531 -1.046875 6.117188 -0.648438 5.609375 -0.359375 C 5.097656 -0.078125 4.519531 0.0625 3.875 0.0625 Z M 3.875 -0.546875 C 4.382812 -0.546875 4.84375 -0.660156 5.25 -0.890625 C 5.664062 -1.128906 5.988281 -1.453125 6.21875 -1.859375 C 6.457031 -2.265625 6.578125 -2.722656 6.578125 -3.234375 C 6.578125 -3.734375 6.457031 -4.1875 6.21875 -4.59375 C 5.988281 -5.007812 5.664062 -5.332031 5.25 -5.5625 C 4.84375 -5.789062 4.382812 -5.90625 3.875 -5.90625 C 3.363281 -5.90625 2.898438 -5.789062 2.484375 -5.5625 C 2.066406 -5.332031 1.738281 -5.007812 1.5 -4.59375 C 1.269531 -4.1875 1.15625 -3.734375 1.15625 -3.234375 C 1.15625 -2.722656 1.269531 -2.265625 1.5 -1.859375 C 1.738281 -1.453125 2.066406 -1.128906 2.484375 -0.890625 C 2.898438 -0.660156 3.363281 -0.546875 3.875 -0.546875 Z M 3.875 -0.546875 "/></g></g></g><g fill="#004aad" fill-opacity="1"><g transform="translate(179.67603, 259.945032)"><g/></g></g><g fill="#004aad" fill-opacity="1"><g transform="translate(188.715729, 259.945032)"><g><path d="M 5.46875 0 L 3.984375 -2.078125 C 3.816406 -2.054688 3.644531 -2.046875 3.46875 -2.046875 L 1.734375 -2.046875 L 1.734375 0 L 1.046875 0 L 1.046875 -6.46875 L 3.46875 -6.46875 C 4.289062 -6.46875 4.9375 -6.269531 5.40625 -5.875 C 5.875 -5.476562 6.109375 -4.9375 6.109375 -4.25 C 6.109375 -3.738281 5.976562 -3.3125 5.71875 -2.96875 C 5.46875 -2.625 5.109375 -2.375 4.640625 -2.21875 L 6.21875 0 Z M 3.453125 -2.625 C 4.085938 -2.625 4.578125 -2.765625 4.921875 -3.046875 C 5.265625 -3.335938 5.4375 -3.738281 5.4375 -4.25 C 5.4375 -4.769531 5.265625 -5.171875 4.921875 -5.453125 C 4.578125 -5.734375 4.085938 -5.875 3.453125 -5.875 L 1.734375 -5.875 L 1.734375 -2.625 Z M 3.453125 -2.625 "/></g></g></g><g fill="#004aad" fill-opacity="1"><g transform="translate(202.007091, 259.945032)"><g><path d="M 5.625 -0.59375 L 5.625 0 L 1.046875 0 L 1.046875 -6.46875 L 5.484375 -6.46875 L 5.484375 -5.875 L 1.734375 -5.875 L 1.734375 -3.578125 L 5.078125 -3.578125 L 5.078125 -2.984375 L 1.734375 -2.984375 L 1.734375 -0.59375 Z M 5.625 -0.59375 "/></g></g></g><g fill="#004aad" fill-opacity="1"><g transform="translate(214.800429, 259.945032)"><g><path d="M 1.046875 -6.46875 L 1.734375 -6.46875 L 1.734375 -0.59375 L 5.359375 -0.59375 L 5.359375 0 L 1.046875 0 Z M 1.046875 -6.46875 "/></g></g></g><g fill="#004aad" fill-opacity="1"><g transform="translate(226.855955, 259.945032)"><g><path d="M 5.109375 -1.734375 L 1.5 -1.734375 L 0.734375 0 L 0.015625 0 L 2.96875 -6.46875 L 3.640625 -6.46875 L 6.609375 0 L 5.875 0 Z M 4.859375 -2.28125 L 3.3125 -5.75 L 1.75 -2.28125 Z M 4.859375 -2.28125 "/></g></g></g><g fill="#004aad" fill-opacity="1"><g transform="translate(240.091985, 259.945032)"><g><path d="M 5.109375 0 L 3.015625 -2.84375 L 0.9375 0 L 0.15625 0 L 2.609375 -3.328125 L 0.3125 -6.46875 L 1.09375 -6.46875 L 3.046875 -3.828125 L 4.984375 -6.46875 L 5.71875 -6.46875 L 3.4375 -3.34375 L 5.90625 0 Z M 5.109375 0 "/></g></g></g></svg>